<svg width="252" height="57" viewBox="0 0 252 57" fill="none" xmlns="http://www.w3.org/2000/svg">
<path d="M54.88 8.24C55.9467 6.21333 57.0267 4.66666 58.12 3.6C59.2133 2.50667 60.12 1.96 60.84 1.96C61.4533 1.96 61.76 2.28 61.76 2.92C61.76 4.06666 61.3067 5.29333 60.4 6.6C59.4933 7.90667 58.2533 9.22667 56.68 10.56C55.1067 11.8933 53.32 13.1733 51.32 14.4C49.3467 15.6 47.2533 16.68 45.04 17.64C42.8533 18.6 40.68 19.36 38.52 19.92C36.36 20.4533 34.3467 20.72 32.48 20.72C29.5733 20.72 27.0667 20.3733 24.96 19.68C22.88 18.9867 21.2667 17.9867 20.12 16.68C19 15.3733 18.44 13.8267 18.44 12.04C18.44 10.68 18.8133 9.42667 19.56 8.28C20.3067 7.10667 21.3333 6.06667 22.64 5.16C23.9733 4.25333 25.5067 3.54667 27.24 3.04C28.9733 2.53333 30.84 2.28 32.84 2.28C35.1867 2.28 37.5333 2.56 39.88 3.12C42.2533 3.65333 44.5333 4.41333 46.72 5.4C48.9067 6.38667 50.8933 7.53333 52.68 8.84C54.4933 10.1467 56 11.56 57.2 13.08C58.4 14.5733 59.1867 16.1067 59.56 17.68L59.32 17.72C58.92 16.1733 58.12 14.6667 56.92 13.2C55.72 11.7067 54.2267 10.32 52.44 9.04C50.6533 7.76 48.68 6.64 46.52 5.68C44.3867 4.72 42.1467 3.97333 39.8 3.44C37.4533 2.88 35.1333 2.6 32.84 2.6C30.8667 2.6 29.0267 2.84 27.32 3.32C25.6133 3.8 24.12 4.46666 22.84 5.32C21.56 6.17333 20.56 7.17333 19.84 8.32C19.12 9.44 18.76 10.6667 18.76 12C18.76 14.64 19.96 16.7067 22.36 18.2C24.7867 19.6667 28.16 20.4 32.48 20.4C34.2933 20.4 36.2533 20.1333 38.36 19.6C40.4933 19.04 42.64 18.2933 44.8 17.36C46.96 16.4267 49.04 15.36 51.04 14.16C53.04 12.96 54.8133 11.7067 56.36 10.4C57.9333 9.09333 59.1733 7.81333 60.08 6.56C60.9867 5.28 61.44 4.09333 61.44 3C61.44 2.54667 61.2667 2.32 60.92 2.32C60.28 2.32 59.4667 2.8 58.48 3.76C57.52 4.72 56.4933 6.24 55.4 8.32C54.2533 10.5867 53.1733 12.8533 52.16 15.12C51.1733 17.36 50.2 19.5467 49.24 21.68C48.28 23.8133 47.2667 25.8267 46.2 27.72C45.16 29.6133 44.0133 31.3467 42.76 32.92C41.5067 34.4667 40.08 35.8133 38.48 36.96C36.88 38.1067 35.0533 38.9867 33 39.6C30.9733 40.24 28.64 40.56 26 40.56C23.36 40.56 20.9067 40.1733 18.64 39.4C16.3733 38.6267 14.3867 37.5467 12.68 36.16C10.9733 34.7733 9.64 33.16 8.68 31.32C7.72 29.48 7.24 27.4933 7.24 25.36C7.24 23.28 7.70667 21.3467 8.64 19.56C9.6 17.7467 10.92 16.16 12.6 14.8C14.3067 13.4133 16.2667 12.3333 18.48 11.56C20.72 10.7867 23.12 10.4 25.68 10.4C28.48 10.4 30.96 10.8667 33.12 11.8C35.28 12.7067 36.9733 13.9733 38.2 15.6C39.4533 17.2267 40.08 19.08 40.08 21.16C40.08 22.76 39.6933 24.2533 38.92 25.64C38.1733 27 37.12 28.2 35.76 29.24C34.4 30.28 32.8133 31.0933 31 31.68C29.1867 32.2667 27.24 32.56 25.16 32.56C23.0533 32.56 21.2267 32.2533 19.68 31.64C18.1333 31 16.9333 30.1067 16.08 28.96C15.2267 27.8133 14.8 26.4667 14.8 24.92C14.8 23.3467 15.2667 21.9467 16.2 20.72C17.1333 19.4667 18.3867 18.48 19.96 17.76C21.56 17.0133 23.36 16.64 25.36 16.64C27.52 16.64 29.2667 17.08 30.6 17.96C31.9333 18.84 32.6 19.9867 32.6 21.4C32.6 22.3867 32.28 23.28 31.64 24.08C31 24.8533 30.1333 25.48 29.04 25.96C27.9733 26.4133 26.7467 26.64 25.36 26.64C24.6133 26.64 24 26.4933 23.52 26.2C23.0667 25.9067 22.84 25.52 22.84 25.04C22.84 24.3733 23.3733 23.8533 24.44 23.48C25.5067 23.08 26.9067 22.88 28.64 22.88C31.4667 22.88 33.9467 23.3467 36.08 24.28C38.24 25.2133 39.92 26.5067 41.12 28.16C42.32 29.8133 42.92 31.7333 42.92 33.92C42.92 35.6 42.4533 37.1467 41.52 38.56C40.5867 40 39.28 41.2533 37.6 42.32C35.92 43.4133 33.9733 44.2667 31.76 44.88C29.5467 45.4933 27.1467 45.8 24.56 45.8C21.04 45.8 17.8133 45.32 14.88 44.36C11.9733 43.4267 9.44 42.0933 7.28 40.36C5.14667 38.6267 3.49333 36.5733 2.32 34.2C1.14667 31.8 0.56 29.1867 0.56 26.36C0.56 23.6933 1.12 21.1467 2.24 18.72C3.36 16.2667 4.94667 14.0667 7 12.12C9.05333 10.1467 11.4933 8.54667 14.32 7.32L14.48 7.64C11.7333 8.84 9.33333 10.4133 7.28 12.36C5.25333 14.28 3.69333 16.4533 2.6 18.88C1.48 21.28 0.92 23.8 0.92 26.44C0.92 29.2133 1.50667 31.76 2.68 34.08C3.82667 36.4 5.45333 38.4133 7.56 40.12C9.66667 41.8267 12.16 43.1467 15.04 44.08C17.9467 45.0133 21.12 45.48 24.56 45.48C27.0933 45.48 29.44 45.1733 31.6 44.56C33.7867 43.9733 35.6933 43.1467 37.32 42.08C38.9733 41.04 40.2667 39.8133 41.2 38.4C42.1333 37.0133 42.6 35.52 42.6 33.92C42.6 31.84 42 30 40.8 28.4C39.6267 26.7733 37.9867 25.5067 35.88 24.6C33.7733 23.6667 31.3733 23.2 28.68 23.2C26.9733 23.2 25.6267 23.3733 24.64 23.72C23.6533 24.04 23.16 24.48 23.16 25.04C23.16 25.3867 23.36 25.6933 23.76 25.96C24.1867 26.2 24.72 26.32 25.36 26.32C26.6933 26.32 27.8667 26.1067 28.88 25.68C29.92 25.2533 30.7467 24.6667 31.36 23.92C31.9733 23.1467 32.28 22.2933 32.28 21.36C32.28 20.08 31.6267 19.0267 30.32 18.2C29.04 17.3733 27.3867 16.96 25.36 16.96C23.44 16.96 21.7067 17.32 20.16 18.04C18.6133 18.7333 17.3867 19.68 16.48 20.88C15.5733 22.08 15.12 23.4267 15.12 24.92C15.12 26.3867 15.5333 27.6667 16.36 28.76C17.2133 29.8533 18.3867 30.7067 19.88 31.32C21.4 31.9333 23.16 32.24 25.16 32.24C27.16 32.24 29.04 31.96 30.8 31.4C32.5867 30.8133 34.1467 30.0133 35.48 29C36.8133 27.9867 37.8533 26.8133 38.6 25.48C39.3733 24.12 39.76 22.68 39.76 21.16C39.76 19.16 39.1467 17.3733 37.92 15.8C36.6933 14.2267 35.0133 12.9867 32.88 12.08C30.7733 11.1733 28.3733 10.72 25.68 10.72C23.2 10.72 20.8533 11.1067 18.64 11.88C16.4533 12.6267 14.5333 13.6667 12.88 15C11.2267 16.3333 9.92 17.8933 8.96 19.68C8.02667 21.4667 7.56 23.36 7.56 25.36C7.56 27.0933 7.98667 28.7333 8.84 30.28C9.72 31.8 10.92 33.1333 12.44 34.28C13.96 35.4267 15.7333 36.32 17.76 36.96C19.7867 37.6267 21.9467 37.96 24.24 37.96C26.3733 37.96 28.36 37.7067 30.2 37.2C32.04 36.6933 33.76 35.96 35.36 35C36.96 34.04 38.4667 32.8933 39.88 31.56C41.2933 30.2 42.64 28.6667 43.92 26.96C45.2267 25.2533 46.48 23.4133 47.68 21.44C48.9067 19.4667 50.1067 17.3733 51.28 15.16C52.48 12.9467 53.68 10.64 54.88 8.24ZM47.1441 35.32C46.8774 35.32 46.6374 35.2133 46.4241 35C46.2107 34.8133 46.1041 34.56 46.1041 34.24C46.1041 33.3333 46.6774 32.08 47.8241 30.48C48.9707 28.88 50.8241 26.7467 53.3841 24.08H56.1841C55.8907 24.24 55.5174 24.4933 55.0641 24.84C54.6107 25.1867 54.1174 25.6133 53.5841 26.12C51.8774 27.8 50.5041 29.1867 49.4641 30.28C48.4507 31.3467 47.7307 32.2 47.3041 32.84C46.8507 33.48 46.6241 34 46.6241 34.4C46.6241 34.88 46.8107 35.12 47.1841 35.12C47.6107 35.12 48.2374 34.8667 49.0641 34.36C49.8641 33.8267 50.7441 33.12 51.7041 32.24C52.6907 31.36 53.6374 30.4 54.5441 29.36L54.9841 28.92H55.3441L55.0241 29.28C53.9841 30.4533 52.9441 31.4933 51.9041 32.4C50.8907 33.3067 49.9574 34.0267 49.1041 34.56C48.2774 35.0667 47.6241 35.32 47.1441 35.32ZM62.5441 14.84C62.8107 14.84 62.9441 14.9333 62.9441 15.12C62.9441 15.44 62.7307 15.8267 62.3041 16.28C61.9041 16.7067 61.4374 17.0933 60.9041 17.44C60.3974 17.7867 59.9441 17.96 59.5441 17.96C59.3041 17.96 59.1841 17.8533 59.1841 17.64C59.1841 17.3467 59.3841 16.9867 59.7841 16.56C60.2107 16.1067 60.6907 15.7067 61.2241 15.36C61.7574 15.0133 62.1974 14.84 62.5441 14.84ZM53.5616 35.24C52.7882 35.24 52.4016 34.6267 52.4016 33.4C52.4016 32.6 52.6416 31.7467 53.1216 30.84C53.6016 29.9067 54.2416 29.0133 55.0416 28.16C55.8682 27.3067 56.7749 26.5333 57.7616 25.84C58.7749 25.1467 59.8149 24.6 60.8816 24.2C61.9749 23.7733 63.0016 23.56 63.9616 23.56C64.7616 23.56 65.1616 23.88 65.1616 24.52C65.1616 24.9733 64.8816 25.5867 64.3216 26.36C63.7616 27.1333 62.7349 28.2933 61.2416 29.84C60.2282 30.9067 59.2282 31.8533 58.2416 32.68C57.2549 33.48 56.3482 34.1067 55.5216 34.56C54.6949 35.0133 54.0416 35.24 53.5616 35.24ZM53.6016 35C54.2949 35 55.3216 34.5067 56.6816 33.52C58.0682 32.5333 59.5349 31.2533 61.0816 29.68C62.5216 28.1867 63.5082 27.08 64.0416 26.36C64.5749 25.6133 64.8416 25.0133 64.8416 24.56C64.8416 24.1333 64.5749 23.92 64.0416 23.92C63.5616 23.92 62.9616 24.12 62.2416 24.52C61.5216 24.8933 60.7349 25.4 59.8816 26.04C59.0549 26.68 58.2282 27.3867 57.4016 28.16C56.6016 28.9333 55.8549 29.72 55.1616 30.52C54.4949 31.2933 53.9616 32.0267 53.5616 32.72C53.1616 33.3867 52.9616 33.96 52.9616 34.44C52.9616 34.8133 53.1749 35 53.6016 35ZM67.6416 29.28C66.4149 30.6133 64.9882 32.0133 63.3616 33.48C61.7349 34.92 59.8149 36.4267 57.6016 38C55.3882 39.5733 52.8149 41.2133 49.8816 42.92C47.8016 44.1733 45.8149 45.4267 43.9216 46.68C42.0282 47.9333 40.3482 49.1333 38.8816 50.28C37.4149 51.4267 36.2682 52.4267 35.4416 53.28C34.5882 54.16 34.1616 54.8267 34.1616 55.28C34.1616 55.6267 34.3349 55.8 34.6816 55.8C35.6149 55.8 36.8549 55.32 38.4016 54.36C39.9482 53.4 41.6816 52.0667 43.6016 50.36C45.5216 48.6533 47.5216 46.6667 49.6016 44.4C51.6816 42.1333 53.7216 39.68 55.7216 37.04C56.1482 36.48 56.6016 35.88 57.0816 35.24C57.5616 34.6267 58.1216 33.9067 58.7616 33.08C59.4016 32.2533 60.1882 31.2533 61.1216 30.08L61.2016 30.6H60.2816L64.2016 26.56L66.2416 24.08H68.8816C68.0549 24.6667 67.1616 25.3467 66.2016 26.12C65.2682 26.8933 64.3616 27.7067 63.4816 28.56C62.6016 29.4133 61.8149 30.2267 61.1216 31C58.5349 34.76 56.2816 37.9333 54.3616 40.52C52.4149 43.1067 50.8149 45.0933 49.5616 46.48C46.6549 49.5733 43.9216 51.9467 41.3616 53.6C38.8016 55.28 36.6016 56.12 34.7616 56.12C34.0149 56.12 33.6416 55.8533 33.6416 55.32C33.6416 54.84 34.0949 54.12 35.0016 53.16C35.9082 52.2267 37.1216 51.16 38.6416 49.96C40.1616 48.76 41.8816 47.52 43.8016 46.24C45.7216 44.9867 47.6816 43.8 49.6816 42.68C52.1882 41.2667 54.5349 39.7867 56.7216 38.24C58.9349 36.72 60.9216 35.2 62.6816 33.68C64.4682 32.16 65.9616 30.72 67.1616 29.36L67.5616 28.92H67.9616L67.6416 29.28ZM67.3256 28.92H66.9656L67.4056 28.44C68.7656 26.9467 70.0456 25.76 71.2456 24.88C72.4723 23.9733 73.4456 23.52 74.1656 23.52C74.459 23.52 74.699 23.6133 74.8856 23.8C75.0723 23.9867 75.1656 24.24 75.1656 24.56C75.1656 25.2267 74.8856 25.9867 74.3256 26.84C73.7656 27.6667 72.8056 28.7867 71.4456 30.2H71.8856L70.9656 31.48L67.8056 35H64.7256C65.8456 34.1733 66.9923 33.24 68.1656 32.2C69.3656 31.1333 70.459 30.08 71.4456 29.04C72.459 27.9733 73.2723 27.0267 73.8856 26.2C74.499 25.3467 74.8056 24.7333 74.8056 24.36C74.8056 23.96 74.579 23.76 74.1256 23.76C73.7523 23.76 73.2056 23.9733 72.4856 24.4C71.7656 24.8 70.9923 25.36 70.1656 26.08C69.339 26.8 68.539 27.5867 67.7656 28.44L67.3256 28.92ZM75.0856 35.32C74.7123 35.32 74.3923 35.1733 74.1256 34.88C73.8856 34.56 73.7656 34.1867 73.7656 33.76C73.7656 33.0933 74.0056 32.4133 74.4856 31.72C74.9923 31 75.619 30.2933 76.3656 29.6C77.1123 28.9067 77.8456 28.24 78.5656 27.6C79.3123 26.9333 79.9256 26.3467 80.4056 25.84C80.9123 25.3067 81.1656 24.84 81.1656 24.44C81.1656 24.0667 80.9523 23.88 80.5256 23.88C80.0723 23.88 79.4723 24.12 78.7256 24.6C78.0056 25.0533 77.179 25.6533 76.2456 26.4C75.339 27.1467 74.4323 27.96 73.5256 28.84C72.619 29.72 71.7656 30.6 70.9656 31.48H70.5656C71.3656 30.5733 72.2323 29.6667 73.1656 28.76C74.1256 27.8533 75.0723 27.0133 76.0056 26.24C76.939 25.4667 77.8056 24.84 78.6056 24.36C79.4056 23.88 80.059 23.64 80.5656 23.64C80.9123 23.64 81.2323 23.76 81.5256 24C81.819 24.24 81.9656 24.6133 81.9656 25.12C81.9656 25.7867 81.699 26.4667 81.1656 27.16C80.659 27.8533 80.0323 28.5333 79.2856 29.2C78.539 29.8667 77.7923 30.52 77.0456 31.16C76.299 31.8 75.659 32.4 75.1256 32.96C74.619 33.4933 74.3656 33.9867 74.3656 34.44C74.3656 34.6267 74.4323 34.7867 74.5656 34.92C74.7256 35.0533 74.9123 35.12 75.1256 35.12C75.6056 35.12 76.2723 34.8533 77.1256 34.32C78.0056 33.76 78.9656 33.0533 80.0056 32.2C81.0456 31.32 82.0056 30.3733 82.8856 29.36L83.3256 28.92H83.6856L83.3656 29.28C82.379 30.4 81.339 31.4267 80.2456 32.36C79.179 33.2667 78.1923 33.9867 77.2856 34.52C76.379 35.0533 75.6456 35.32 75.0856 35.32ZM81.8928 35.24C81.1195 35.24 80.7328 34.6267 80.7328 33.4C80.7328 32.6 80.9728 31.7467 81.4528 30.84C81.9328 29.9067 82.5728 29.0133 83.3728 28.16C84.1995 27.3067 85.1061 26.5333 86.0928 25.84C87.1061 25.1467 88.1461 24.6 89.2128 24.2C90.3061 23.7733 91.3328 23.56 92.2928 23.56C93.0928 23.56 93.4928 23.88 93.4928 24.52C93.4928 25.08 93.1195 25.8133 92.3728 26.72C91.6528 27.6267 90.7195 28.6667 89.5728 29.84C88.6928 30.7467 87.7595 31.6133 86.7728 32.44C85.7861 33.2667 84.8661 33.9467 84.0128 34.48C83.1595 34.9867 82.4528 35.24 81.8928 35.24ZM81.9328 35C82.3861 35 82.9995 34.7733 83.7728 34.32C84.5728 33.8667 85.4528 33.24 86.4128 32.44C87.3995 31.6133 88.3995 30.68 89.4128 29.64C90.5328 28.4667 91.4395 27.4533 92.1328 26.6C92.8261 25.7467 93.1728 25.0667 93.1728 24.56C93.1728 24.1333 92.9061 23.92 92.3728 23.92C91.8928 23.92 91.2928 24.12 90.5728 24.52C89.8528 24.8933 89.0661 25.4 88.2128 26.04C87.3861 26.68 86.5595 27.3867 85.7328 28.16C84.9328 28.9333 84.1861 29.72 83.4928 30.52C82.8261 31.2933 82.2928 32.0267 81.8928 32.72C81.4928 33.3867 81.2928 33.96 81.2928 34.44C81.2928 34.8133 81.5061 35 81.9328 35ZM96.5728 28.92L96.2528 29.28C95.2661 30.4 94.2528 31.4267 93.2128 32.36C92.1995 33.2667 91.2661 33.9867 90.4128 34.52C89.5595 35.0533 88.8795 35.32 88.3728 35.32C88.1061 35.32 87.8661 35.2133 87.6528 35C87.4661 34.8133 87.3728 34.56 87.3728 34.24C87.3728 33.44 87.8128 32.36 88.6928 31C89.5995 29.6133 90.8395 28.0933 92.4128 26.44H92.6128L94.7728 24.08H97.5328C97.1061 24.32 96.6661 24.6267 96.2128 25C95.7595 25.3467 95.3328 25.72 94.9328 26.12C93.1461 27.9067 91.7328 29.3333 90.6928 30.4C89.6795 31.4667 88.9595 32.3067 88.5328 32.92C88.1061 33.5067 87.8928 34 87.8928 34.4C87.8928 34.88 88.0795 35.12 88.4528 35.12C88.8795 35.12 89.4795 34.88 90.2528 34.4C91.0261 33.8933 91.8928 33.2133 92.8528 32.36C93.8395 31.48 94.8261 30.48 95.8128 29.36L96.2128 28.92H96.5728ZM97.4894 20.84V20.52H116.049V20.84H97.4894ZM97.6494 28.32C96.2627 29.8933 95.2894 31.1333 94.7294 32.04C94.1427 32.92 93.8494 33.6667 93.8494 34.28C93.8494 34.84 94.0627 35.12 94.4894 35.12C94.9427 35.12 95.4627 34.9467 96.0494 34.6C96.636 34.2267 97.356 33.6267 98.2094 32.8C99.0627 31.9467 100.129 30.8 101.409 29.36L101.849 28.92H102.209L101.889 29.28C99.9427 31.4667 98.396 33.0267 97.2494 33.96C96.1027 34.8667 95.1427 35.32 94.3694 35.32C93.5427 35.32 93.1294 34.8533 93.1294 33.92C93.1294 32.4533 93.956 30.7867 95.6094 28.92C96.0894 28.3333 96.5427 27.7867 96.9694 27.28C97.396 26.7733 97.8894 26.2133 98.4494 25.6C99.0094 24.9867 99.6894 24.24 100.489 23.36C101.316 22.48 102.356 21.3867 103.609 20.08C104.863 18.7467 106.396 17.1067 108.209 15.16C108.636 15.16 109.116 15.1333 109.649 15.08C110.183 15 110.703 14.8933 111.209 14.76C110.436 15.32 109.343 16.28 107.929 17.64C106.516 18.9733 104.916 20.5733 103.129 22.44C101.369 24.28 99.5427 26.24 97.6494 28.32ZM105.579 24.08H108.379C107.846 24.3467 107.166 24.8267 106.339 25.52C105.539 26.2133 104.699 27 103.819 27.88C102.939 28.76 102.099 29.6533 101.299 30.56C100.526 31.44 99.8994 32.24 99.4194 32.96C98.9127 33.6533 98.6594 34.1467 98.6594 34.44C98.6594 34.8933 98.8594 35.12 99.2594 35.12C99.686 35.12 100.353 34.8267 101.259 34.24C102.166 33.6267 103.179 32.8133 104.299 31.8C105.419 30.76 106.539 29.6 107.659 28.32H108.059C105.979 30.5333 104.166 32.2533 102.619 33.48C101.073 34.7067 99.9394 35.32 99.2194 35.32C98.926 35.32 98.6994 35.2267 98.5394 35.04C98.3794 34.8533 98.2994 34.6 98.2994 34.28C98.2994 33.6667 98.526 32.9467 98.9794 32.12C99.406 31.2933 100.153 30.24 101.219 28.96C102.286 27.68 103.739 26.0533 105.579 24.08ZM105.299 35.32C104.606 35.32 104.259 34.96 104.259 34.24C104.259 33.3333 104.833 32.08 105.979 30.48C107.126 28.88 108.979 26.7467 111.539 24.08H114.339C114.019 24.24 113.633 24.4933 113.179 24.84C112.753 25.16 112.259 25.5867 111.699 26.12C110.019 27.8 108.673 29.1867 107.659 30.28C106.646 31.3467 105.913 32.2 105.459 32.84C105.006 33.48 104.779 34 104.779 34.4C104.779 34.88 104.966 35.12 105.339 35.12C105.766 35.12 106.379 34.8533 107.179 34.32C107.979 33.7867 108.859 33.0933 109.819 32.24C110.806 31.36 111.766 30.4 112.699 29.36L113.139 28.92H113.499L113.139 29.28C112.126 30.4533 111.099 31.4933 110.059 32.4C109.046 33.3067 108.113 34.0267 107.259 34.56C106.433 35.0667 105.779 35.32 105.299 35.32ZM112.855 28.92H112.495L112.935 28.44C115.149 26.0133 116.935 24.0267 118.295 22.48C119.655 20.9067 120.549 19.8 120.975 19.16H122.535C121.575 19.88 120.375 20.96 118.935 22.4C117.495 23.8133 115.629 25.8133 113.335 28.4L112.855 28.92ZM113.815 35.12C114.295 35.12 114.975 34.8533 115.855 34.32C116.762 33.76 117.735 33.0533 118.775 32.2C119.815 31.32 120.789 30.3733 121.695 29.36L122.135 28.92H122.495L122.135 29.28C121.149 30.4 120.109 31.4133 119.015 32.32C117.949 33.2267 116.949 33.96 116.015 34.52C115.082 35.0533 114.322 35.32 113.735 35.32C113.442 35.32 113.135 35.2133 112.815 35C112.495 34.8133 112.335 34.4933 112.335 34.04C112.335 33.4267 112.575 32.7733 113.055 32.08C113.562 31.3867 114.175 30.68 114.895 29.96C115.615 29.24 116.335 28.5467 117.055 27.88C117.775 27.1867 118.375 26.56 118.855 26C119.335 25.44 119.575 24.96 119.575 24.56C119.575 24.1067 119.309 23.88 118.775 23.88C118.535 23.88 118.255 23.9333 117.935 24.04C117.615 24.12 117.269 24.2267 116.895 24.36L117.175 23.96C117.495 23.8267 117.802 23.72 118.095 23.64C118.389 23.56 118.709 23.52 119.055 23.52C119.642 23.52 120.122 23.64 120.495 23.88C120.869 24.12 121.055 24.5067 121.055 25.04C121.055 25.7333 120.789 26.4133 120.255 27.08C119.722 27.7467 119.055 28.4133 118.255 29.08C117.455 29.72 116.642 30.3467 115.815 30.96C115.015 31.5733 114.349 32.1733 113.815 32.76C113.282 33.32 113.015 33.8667 113.015 34.4C113.015 34.88 113.282 35.12 113.815 35.12ZM121.865 35.12C122.665 35.12 123.585 34.8667 124.625 34.36C125.691 33.8533 126.785 33.1733 127.905 32.32C129.051 31.44 130.105 30.4533 131.065 29.36L131.505 28.92H131.865L131.545 29.28C130.531 30.4 129.425 31.4267 128.225 32.36C127.051 33.2667 125.905 33.9867 124.785 34.52C123.665 35.0533 122.691 35.32 121.865 35.32C121.251 35.32 120.758 35.1067 120.385 34.68C120.011 34.2267 119.825 33.6133 119.825 32.84C119.825 32.0667 120.051 31.2667 120.505 30.44C120.958 29.5867 121.558 28.76 122.305 27.96C123.078 27.16 123.931 26.44 124.865 25.8C125.825 25.1333 126.798 24.6133 127.785 24.24C128.798 23.84 129.758 23.64 130.665 23.64C131.065 23.64 131.385 23.7333 131.625 23.92C131.865 24.08 131.985 24.2933 131.985 24.56C131.985 25.0667 131.705 25.6 131.145 26.16C130.585 26.6933 129.851 27.2 128.945 27.68C128.065 28.16 127.118 28.56 126.105 28.88C125.118 29.1733 124.158 29.32 123.225 29.32L123.545 29C124.425 28.9733 125.318 28.8133 126.225 28.52C127.158 28.2267 128.025 27.8533 128.825 27.4C129.625 26.9467 130.278 26.4667 130.785 25.96C131.291 25.4533 131.545 24.9867 131.545 24.56C131.545 24.16 131.291 23.96 130.785 23.96C130.198 23.96 129.478 24.2133 128.625 24.72C127.771 25.2267 126.891 25.88 125.985 26.68C125.078 27.48 124.225 28.3467 123.425 29.28C122.625 30.1867 121.985 31.0667 121.505 31.92C120.998 32.7733 120.745 33.5067 120.745 34.12C120.745 34.7867 121.118 35.12 121.865 35.12ZM181.785 8.24C182.851 6.21333 183.931 4.66666 185.025 3.6C186.118 2.50667 187.025 1.96 187.745 1.96C188.358 1.96 188.665 2.28 188.665 2.92C188.665 4.06666 188.211 5.29333 187.305 6.6C186.398 7.90667 185.158 9.22667 183.585 10.56C182.011 11.8933 180.225 13.1733 178.225 14.4C176.251 15.6 174.158 16.68 171.945 17.64C169.758 18.6 167.585 19.36 165.425 19.92C163.265 20.4533 161.251 20.72 159.385 20.72C156.478 20.72 153.971 20.3733 151.865 19.68C149.785 18.9867 148.171 17.9867 147.025 16.68C145.905 15.3733 145.345 13.8267 145.345 12.04C145.345 10.68 145.718 9.42667 146.465 8.28C147.211 7.10667 148.238 6.06667 149.545 5.16C150.878 4.25333 152.411 3.54667 154.145 3.04C155.878 2.53333 157.745 2.28 159.745 2.28C162.091 2.28 164.438 2.56 166.785 3.12C169.158 3.65333 171.438 4.41333 173.625 5.4C175.811 6.38667 177.798 7.53333 179.585 8.84C181.398 10.1467 182.905 11.56 184.105 13.08C185.305 14.5733 186.091 16.1067 186.465 17.68L186.225 17.72C185.825 16.1733 185.025 14.6667 183.825 13.2C182.625 11.7067 181.131 10.32 179.345 9.04C177.558 7.76 175.585 6.64 173.425 5.68C171.291 4.72 169.051 3.97333 166.705 3.44C164.358 2.88 162.038 2.6 159.745 2.6C157.771 2.6 155.931 2.84 154.225 3.32C152.518 3.8 151.025 4.46666 149.745 5.32C148.465 6.17333 147.465 7.17333 146.745 8.32C146.025 9.44 145.665 10.6667 145.665 12C145.665 14.64 146.865 16.7067 149.265 18.2C151.691 19.6667 155.065 20.4 159.385 20.4C161.198 20.4 163.158 20.1333 165.265 19.6C167.398 19.04 169.545 18.2933 171.705 17.36C173.865 16.4267 175.945 15.36 177.945 14.16C179.945 12.96 181.718 11.7067 183.265 10.4C184.838 9.09333 186.078 7.81333 186.985 6.56C187.891 5.28 188.345 4.09333 188.345 3C188.345 2.54667 188.171 2.32 187.825 2.32C187.185 2.32 186.371 2.8 185.385 3.76C184.425 4.72 183.398 6.24 182.305 8.32C181.158 10.5867 180.078 12.8533 179.065 15.12C178.078 17.36 177.105 19.5467 176.145 21.68C175.185 23.8133 174.171 25.8267 173.105 27.72C172.065 29.6133 170.918 31.3467 169.665 32.92C168.411 34.4667 166.985 35.8133 165.385 36.96C163.785 38.1067 161.958 38.9867 159.905 39.6C157.878 40.24 155.545 40.56 152.905 40.56C150.265 40.56 147.811 40.1733 145.545 39.4C143.278 38.6267 141.291 37.5467 139.585 36.16C137.878 34.7733 136.545 33.16 135.585 31.32C134.625 29.48 134.145 27.4933 134.145 25.36C134.145 23.28 134.611 21.3467 135.545 19.56C136.505 17.7467 137.825 16.16 139.505 14.8C141.211 13.4133 143.171 12.3333 145.385 11.56C147.625 10.7867 150.025 10.4 152.585 10.4C155.385 10.4 157.865 10.8667 160.025 11.8C162.185 12.7067 163.878 13.9733 165.105 15.6C166.358 17.2267 166.985 19.08 166.985 21.16C166.985 22.76 166.598 24.2533 165.825 25.64C165.078 27 164.025 28.2 162.665 29.24C161.305 30.28 159.718 31.0933 157.905 31.68C156.091 32.2667 154.145 32.56 152.065 32.56C149.958 32.56 148.131 32.2533 146.585 31.64C145.038 31 143.838 30.1067 142.985 28.96C142.131 27.8133 141.705 26.4667 141.705 24.92C141.705 23.3467 142.171 21.9467 143.105 20.72C144.038 19.4667 145.291 18.48 146.865 17.76C148.465 17.0133 150.265 16.64 152.265 16.64C154.425 16.64 156.171 17.08 157.505 17.96C158.838 18.84 159.505 19.9867 159.505 21.4C159.505 22.3867 159.185 23.28 158.545 24.08C157.905 24.8533 157.038 25.48 155.945 25.96C154.878 26.4133 153.651 26.64 152.265 26.64C151.518 26.64 150.905 26.4933 150.425 26.2C149.971 25.9067 149.745 25.52 149.745 25.04C149.745 24.3733 150.278 23.8533 151.345 23.48C152.411 23.08 153.811 22.88 155.545 22.88C158.371 22.88 160.851 23.3467 162.985 24.28C165.145 25.2133 166.825 26.5067 168.025 28.16C169.225 29.8133 169.825 31.7333 169.825 33.92C169.825 35.6 169.358 37.1467 168.425 38.56C167.491 40 166.185 41.2533 164.505 42.32C162.825 43.4133 160.878 44.2667 158.665 44.88C156.451 45.4933 154.051 45.8 151.465 45.8C147.945 45.8 144.718 45.32 141.785 44.36C138.878 43.4267 136.345 42.0933 134.185 40.36C132.051 38.6267 130.398 36.5733 129.225 34.2C128.051 31.8 127.465 29.1867 127.465 26.36C127.465 23.6933 128.025 21.1467 129.145 18.72C130.265 16.2667 131.851 14.0667 133.905 12.12C135.958 10.1467 138.398 8.54667 141.225 7.32L141.385 7.64C138.638 8.84 136.238 10.4133 134.185 12.36C132.158 14.28 130.598 16.4533 129.505 18.88C128.385 21.28 127.825 23.8 127.825 26.44C127.825 29.2133 128.411 31.76 129.585 34.08C130.731 36.4 132.358 38.4133 134.465 40.12C136.571 41.8267 139.065 43.1467 141.945 44.08C144.851 45.0133 148.025 45.48 151.465 45.48C153.998 45.48 156.345 45.1733 158.505 44.56C160.691 43.9733 162.598 43.1467 164.225 42.08C165.878 41.04 167.171 39.8133 168.105 38.4C169.038 37.0133 169.505 35.52 169.505 33.92C169.505 31.84 168.905 30 167.705 28.4C166.531 26.7733 164.891 25.5067 162.785 24.6C160.678 23.6667 158.278 23.2 155.585 23.2C153.878 23.2 152.531 23.3733 151.545 23.72C150.558 24.04 150.065 24.48 150.065 25.04C150.065 25.3867 150.265 25.6933 150.665 25.96C151.091 26.2 151.625 26.32 152.265 26.32C153.598 26.32 154.771 26.1067 155.785 25.68C156.825 25.2533 157.651 24.6667 158.265 23.92C158.878 23.1467 159.185 22.2933 159.185 21.36C159.185 20.08 158.531 19.0267 157.225 18.2C155.945 17.3733 154.291 16.96 152.265 16.96C150.345 16.96 148.611 17.32 147.065 18.04C145.518 18.7333 144.291 19.68 143.385 20.88C142.478 22.08 142.025 23.4267 142.025 24.92C142.025 26.3867 142.438 27.6667 143.265 28.76C144.118 29.8533 145.291 30.7067 146.785 31.32C148.305 31.9333 150.065 32.24 152.065 32.24C154.065 32.24 155.945 31.96 157.705 31.4C159.491 30.8133 161.051 30.0133 162.385 29C163.718 27.9867 164.758 26.8133 165.505 25.48C166.278 24.12 166.665 22.68 166.665 21.16C166.665 19.16 166.051 17.3733 164.825 15.8C163.598 14.2267 161.918 12.9867 159.785 12.08C157.678 11.1733 155.278 10.72 152.585 10.72C150.105 10.72 147.758 11.1067 145.545 11.88C143.358 12.6267 141.438 13.6667 139.785 15C138.131 16.3333 136.825 17.8933 135.865 19.68C134.931 21.4667 134.465 23.36 134.465 25.36C134.465 27.0933 134.891 28.7333 135.745 30.28C136.625 31.8 137.825 33.1333 139.345 34.28C140.865 35.4267 142.638 36.32 144.665 36.96C146.691 37.6267 148.851 37.96 151.145 37.96C153.278 37.96 155.265 37.7067 157.105 37.2C158.945 36.6933 160.665 35.96 162.265 35C163.865 34.04 165.371 32.8933 166.785 31.56C168.198 30.2 169.545 28.6667 170.825 26.96C172.131 25.2533 173.385 23.4133 174.585 21.44C175.811 19.4667 177.011 17.3733 178.185 15.16C179.385 12.9467 180.585 10.64 181.785 8.24ZM175.129 35.24C174.355 35.24 173.969 34.6267 173.969 33.4C173.969 32.6 174.209 31.7467 174.689 30.84C175.169 29.9067 175.809 29.0133 176.609 28.16C177.435 27.3067 178.342 26.5333 179.329 25.84C180.342 25.1467 181.382 24.6 182.449 24.2C183.542 23.7733 184.569 23.56 185.529 23.56C186.329 23.56 186.729 23.88 186.729 24.52C186.729 25.08 186.355 25.8133 185.609 26.72C184.889 27.6267 183.955 28.6667 182.809 29.84C181.929 30.7467 180.995 31.6133 180.009 32.44C179.022 33.2667 178.102 33.9467 177.249 34.48C176.395 34.9867 175.689 35.24 175.129 35.24ZM175.169 35C175.622 35 176.235 34.7733 177.009 34.32C177.809 33.8667 178.689 33.24 179.649 32.44C180.635 31.6133 181.635 30.68 182.649 29.64C183.769 28.4667 184.675 27.4533 185.369 26.6C186.062 25.7467 186.409 25.0667 186.409 24.56C186.409 24.1333 186.142 23.92 185.609 23.92C185.129 23.92 184.529 24.12 183.809 24.52C183.089 24.8933 182.302 25.4 181.449 26.04C180.622 26.68 179.795 27.3867 178.969 28.16C178.169 28.9333 177.422 29.72 176.729 30.52C176.062 31.2933 175.529 32.0267 175.129 32.72C174.729 33.3867 174.529 33.96 174.529 34.44C174.529 34.8133 174.742 35 175.169 35ZM189.809 28.92L189.489 29.28C188.502 30.4 187.489 31.4267 186.449 32.36C185.435 33.2667 184.502 33.9867 183.649 34.52C182.795 35.0533 182.115 35.32 181.609 35.32C181.342 35.32 181.102 35.2133 180.889 35C180.702 34.8133 180.609 34.56 180.609 34.24C180.609 33.44 181.049 32.36 181.929 31C182.835 29.6133 184.075 28.0933 185.649 26.44H185.849L188.009 24.08H190.769C190.342 24.32 189.902 24.6267 189.449 25C188.995 25.3467 188.569 25.72 188.169 26.12C186.382 27.9067 184.969 29.3333 183.929 30.4C182.915 31.4667 182.195 32.3067 181.769 32.92C181.342 33.5067 181.129 34 181.129 34.4C181.129 34.88 181.315 35.12 181.689 35.12C182.115 35.12 182.715 34.88 183.489 34.4C184.262 33.8933 185.129 33.2133 186.089 32.36C187.075 31.48 188.062 30.48 189.049 29.36L189.449 28.92H189.809ZM189.205 28.92H188.845L189.285 28.44C190.645 26.9467 191.925 25.76 193.125 24.88C194.352 23.9733 195.325 23.52 196.045 23.52C196.339 23.52 196.579 23.6133 196.765 23.8C196.952 23.9867 197.045 24.24 197.045 24.56C197.045 25.2267 196.765 25.9867 196.205 26.84C195.645 27.6667 194.685 28.7867 193.325 30.2H193.765L192.845 31.48L189.685 35H186.605C187.725 34.1733 188.872 33.24 190.045 32.2C191.245 31.1333 192.339 30.08 193.325 29.04C194.339 27.9733 195.152 27.0267 195.765 26.2C196.379 25.3467 196.685 24.7333 196.685 24.36C196.685 23.96 196.459 23.76 196.005 23.76C195.632 23.76 195.085 23.9733 194.365 24.4C193.645 24.8 192.872 25.36 192.045 26.08C191.219 26.8 190.419 27.5867 189.645 28.44L189.205 28.92ZM203.005 35.32C202.659 35.32 202.352 35.1733 202.085 34.88C201.819 34.56 201.685 34.1867 201.685 33.76C201.685 33.0933 201.939 32.4133 202.445 31.72C202.952 31 203.565 30.2933 204.285 29.6C205.032 28.9067 205.765 28.24 206.485 27.6C207.205 26.9333 207.819 26.3333 208.325 25.8C208.832 25.2667 209.085 24.8133 209.085 24.44C209.085 24.0667 208.859 23.88 208.405 23.88C207.979 23.88 207.392 24.12 206.645 24.6C205.899 25.0533 205.072 25.6533 204.165 26.4C203.259 27.1467 202.339 27.96 201.405 28.84C200.499 29.72 199.645 30.6 198.845 31.48H198.485C199.285 30.5733 200.152 29.6667 201.085 28.76C202.045 27.8533 202.992 27.0133 203.925 26.24C204.885 25.4667 205.752 24.84 206.525 24.36C207.325 23.88 207.979 23.64 208.485 23.64C208.832 23.64 209.152 23.76 209.445 24C209.739 24.24 209.885 24.6133 209.885 25.12C209.885 25.7867 209.619 26.4667 209.085 27.16C208.579 27.8533 207.952 28.5333 207.205 29.2C206.459 29.8667 205.712 30.52 204.965 31.16C204.219 31.8 203.579 32.4 203.045 32.96C202.539 33.4933 202.285 33.9867 202.285 34.44C202.285 34.8933 202.539 35.12 203.045 35.12C203.525 35.12 204.205 34.8533 205.085 34.32C205.965 33.76 206.912 33.0533 207.925 32.2C208.939 31.32 209.912 30.3733 210.845 29.36L211.245 28.92H211.605L211.285 29.28C210.299 30.4 209.272 31.4267 208.205 32.36C207.139 33.2667 206.139 33.9867 205.205 34.52C204.299 35.0533 203.565 35.32 203.005 35.32ZM192.845 31.48H192.445L195.285 28.44C196.645 26.9733 197.885 25.8267 199.005 25C200.125 24.1467 201.045 23.72 201.765 23.72C202.032 23.72 202.259 23.8133 202.445 24C202.659 24.16 202.765 24.4 202.765 24.72C202.765 25.3867 202.512 26.1333 202.005 26.96C201.499 27.76 200.605 28.84 199.325 30.2H199.805L198.885 31.48L195.725 35H192.965C194.032 34.1733 195.112 33.24 196.205 32.2C197.325 31.16 198.339 30.1333 199.245 29.12C200.179 28.08 200.939 27.1467 201.525 26.32C202.112 25.4933 202.405 24.9067 202.405 24.56C202.405 24.1333 202.192 23.92 201.765 23.92C201.365 23.92 200.832 24.1333 200.165 24.56C199.525 24.96 198.805 25.5067 198.005 26.2C197.232 26.8667 196.459 27.6133 195.685 28.44L192.845 31.48ZM210.988 28.92H210.628L211.068 28.44C212.801 26.4133 214.575 24.44 216.388 22.52C218.228 20.6 220.108 18.7067 222.028 16.84H222.348C220.535 18.6 218.721 20.4533 216.908 22.4C215.095 24.32 213.268 26.3333 211.428 28.44L210.988 28.92ZM209.708 33.48C209.975 34.0933 210.428 34.4 211.068 34.4C211.628 34.4 212.335 34.1333 213.188 33.6C214.041 33.0667 214.921 32.3867 215.828 31.56C216.761 30.7333 217.615 29.8533 218.388 28.92C219.188 27.9867 219.841 27.0933 220.348 26.24C220.855 25.3867 221.108 24.7067 221.108 24.2C221.108 23.88 220.935 23.72 220.588 23.72C220.028 23.72 219.361 23.9467 218.588 24.4C217.815 24.8267 217.001 25.3867 216.148 26.08C215.321 26.7467 214.521 27.44 213.748 28.16C213.001 28.8533 212.361 29.4667 211.828 30C211.295 30.5333 210.961 30.9067 210.828 31.12L191.148 54.76L187.868 55.36C188.241 55.0667 188.721 54.64 189.308 54.08C189.868 53.5467 190.481 52.9333 191.148 52.24C191.788 51.5467 192.428 50.84 193.068 50.12C193.681 49.4267 194.255 48.7867 194.788 48.2C195.295 47.64 195.668 47.2 195.908 46.88L211.468 28.92C211.788 28.5467 212.268 28 212.908 27.28C213.575 26.56 214.321 25.7333 215.148 24.8C216.001 23.8667 216.868 22.9067 217.748 21.92C218.628 20.9333 219.441 20 220.188 19.12C220.961 18.2133 221.575 17.4533 222.028 16.84H223.628C223.255 17.0267 222.721 17.44 222.028 18.08C221.361 18.72 220.601 19.4933 219.748 20.4C218.895 21.28 218.001 22.2533 217.068 23.32C216.135 24.36 215.228 25.4 214.348 26.44C213.495 27.48 212.721 28.44 212.028 29.32L211.948 29.12H212.348C213.895 27.5733 215.188 26.4 216.228 25.6C217.295 24.7733 218.175 24.2133 218.868 23.92C219.588 23.6267 220.175 23.48 220.628 23.48C220.948 23.48 221.215 23.6267 221.428 23.92C221.641 24.1867 221.748 24.56 221.748 25.04C221.748 26.16 221.415 27.2933 220.748 28.44C220.081 29.56 219.215 30.6 218.148 31.56C217.108 32.4933 215.961 33.24 214.708 33.8C213.481 34.36 212.281 34.64 211.108 34.64C210.281 34.64 209.695 34.4 209.348 33.92L209.708 33.48ZM221.444 35.32C220.618 35.32 220.204 34.8533 220.204 33.92C220.204 32.4533 221.031 30.7867 222.684 28.92L248.204 0.0399995H251.164C250.658 0.279998 249.898 0.866664 248.884 1.8C247.871 2.70666 246.698 3.85333 245.364 5.24C244.031 6.6 242.644 8.08 241.204 9.68L224.724 28.32C223.311 29.9467 222.324 31.2 221.764 32.08C221.204 32.9333 220.924 33.6667 220.924 34.28C220.924 34.84 221.138 35.12 221.564 35.12C222.391 35.12 223.498 34.6133 224.884 33.6C226.298 32.56 227.791 31.1467 229.364 29.36L229.764 28.92H230.124L229.804 29.28C228.098 31.2267 226.524 32.72 225.084 33.76C223.644 34.8 222.431 35.32 221.444 35.32ZM229.515 35.12C230.315 35.12 231.235 34.8667 232.275 34.36C233.341 33.8533 234.435 33.1733 235.555 32.32C236.701 31.44 237.755 30.4533 238.715 29.36L239.155 28.92H239.515L239.195 29.28C238.181 30.4 237.075 31.4267 235.875 32.36C234.701 33.2667 233.555 33.9867 232.435 34.52C231.315 35.0533 230.341 35.32 229.515 35.32C228.901 35.32 228.408 35.1067 228.035 34.68C227.661 34.2267 227.475 33.6133 227.475 32.84C227.475 32.0667 227.701 31.2667 228.155 30.44C228.608 29.5867 229.208 28.76 229.955 27.96C230.728 27.16 231.581 26.44 232.515 25.8C233.475 25.1333 234.448 24.6133 235.435 24.24C236.448 23.84 237.408 23.64 238.315 23.64C238.715 23.64 239.035 23.7333 239.275 23.92C239.515 24.08 239.635 24.2933 239.635 24.56C239.635 25.0667 239.355 25.6 238.795 26.16C238.235 26.6933 237.501 27.2 236.595 27.68C235.715 28.16 234.768 28.56 233.755 28.88C232.768 29.1733 231.808 29.32 230.875 29.32L231.195 29C232.075 28.9733 232.968 28.8133 233.875 28.52C234.808 28.2267 235.675 27.8533 236.475 27.4C237.275 26.9467 237.928 26.4667 238.435 25.96C238.941 25.4533 239.195 24.9867 239.195 24.56C239.195 24.16 238.941 23.96 238.435 23.96C237.848 23.96 237.128 24.2133 236.275 24.72C235.421 25.2267 234.541 25.88 233.635 26.68C232.728 27.48 231.875 28.3467 231.075 29.28C230.275 30.1867 229.635 31.0667 229.155 31.92C228.648 32.7733 228.395 33.5067 228.395 34.12C228.395 34.7867 228.768 35.12 229.515 35.12Z" fill="black"/>
</svg>
